# xmcd
#
# Track frame offsets: 
#        150
#        13213
#        29369
#        46463
#        66697
#        79955
#        92308
#        108738
#        122395
#        127022
#        140872
#        159966
#        184741
#
# Disc length: 3776 seconds
#
# Revision: 0
# Processed by: cddbd v1.5.2PL0 Copyright (c) Steve Scherf et al.
# Submitted via: ExactAudioCopyFreeDBPlugin 1.0
#
DISCID=b80ebe0d
DTITLE=Fino Coletivo - Fino Coletivo
DYEAR=1900
DGENRE=
TTITLE0=Tempestade
TTITLE1=Dragão
TTITLE2=Boa Hora
TTITLE3=Tarja Preta - Fafá
TTITLE4=Na Maior Alegria
TTITLE5=Poema de Maria Rosa
TTITLE6=Hortelã
TTITLE7=Partiu Partindo
TTITLE8=Uirapuru
TTITLE9=Mão na Luva
TTITLE10=Uma Raiz, Uma Flor
TTITLE11=Medo da Briga
TTITLE12=acsdcds
EXTD=
EXTT0=
EXTT1=
EXTT2=
EXTT3=
EXTT4=
EXTT5=
EXTT6=
EXTT7=
EXTT8=
EXTT9=
EXTT10=
EXTT11=
EXTT12=
PLAYORDER=
